<?xml version="1.0" encoding="utf-8"?>
<!-- Generator: Adobe Illustrator 26.0.0, SVG Export Plug-In . SVG Version: 6.00 Build 0)  -->
<svg version="1.1" id="Layer_1" xmlns="http://www.w3.org/2000/svg" xmlns:xlink="http://www.w3.org/1999/xlink" x="0px" y="0px"
	 viewBox="0 0 815 300" style="enable-background:new 0 0 815 300;" xml:space="preserve">
<style type="text/css">
	.st0{fill:#333333;}
</style>
<path class="st0" d="M143,24.8H46.2v259H143c85.7,0,140.5-48.4,140.5-130.2C284,72.2,229.1,24.8,143,24.8z M140.6,229.6h-27.7V79
	h27.7c44.8,0,74.2,25.5,74.2,74.6C214.7,203.5,186.8,229.6,140.6,229.6z"/>
<path class="st0" d="M615.8,229.6c6.2-10.4,11.8-21.2,16.9-32.3h0.7c0,0,7.2,15.8,16.9,32.3l31.2,54.2h74.2l-83.2-128.5L756,24.7
	h-75.7l-30.1,53.2c-6.2,10.8-11.9,21.9-16.9,33.4h-0.7c0,0-7.6-16.9-16.9-33.4l-29.4-53.1h-75.7l82.9,130.6l-82.9,128.5h73.9
	L615.8,229.6z"/>
<path class="st0" d="M502.8,278.8l15.4-24L436.1,24.8h-70.3l-92.5,259h68.5l16.5-54.2h85l16.9,54.2h39.8L502.8,278.8z M374,178.7
	l15.8-50.2c5-16.1,11.1-44.5,11.1-44.5h0.7c0,0,6,28.3,11.1,44.5l15.4,50.2H374z"/>
</svg>
