<?xml version="1.0" encoding="utf-8"?>
<!-- Generator: Adobe Illustrator 26.0.0, SVG Export Plug-In . SVG Version: 6.00 Build 0)  -->
<svg version="1.1" id="Layer_1" xmlns="http://www.w3.org/2000/svg" xmlns:xlink="http://www.w3.org/1999/xlink" x="0px" y="0px"
	 viewBox="0 0 50 46" style="enable-background:new 0 0 50 46;" xml:space="preserve">
<style type="text/css">
	.st0{fill-rule:evenodd;clip-rule:evenodd;fill:#25AAE1;}
</style>
<path class="st0" d="M25,0C11.2,0,0,10.5,0,23.4c0,10.3,7.2,19.1,17,22.3c1.2,0.1,1.7-0.6,1.7-1.2v-4c-6.9,1.4-8.4-3.2-8.4-3.2
	c-1.1-2.7-2.8-3.5-2.8-3.5c-2.3-1.4,0.2-1.4,0.2-1.4c2.5,0.1,3.8,2.4,3.8,2.4c2.3,3.6,5.8,2.6,7.2,2c0.2-1.6,0.9-2.6,1.5-3.2
	c-5.5-0.6-11.4-2.6-11.4-11.6c0-2.6,0.9-4.6,2.6-6.3c-0.3-0.6-1.1-3,0.3-6.2c0,0,2.1-0.6,6.9,2.4c2-0.6,4.1-0.7,6.3-0.7
	c2.1,0,4.3,0.3,6.3,0.7c4.8-3,6.9-2.4,6.9-2.4c1.4,3.2,0.5,5.6,0.3,6.2c1.7,1.7,2.6,4,2.6,6.3c0,9-5.8,10.9-11.4,11.5
	c0.9,0.7,1.7,2.2,1.7,4.3v6.5c0,0.6,0.5,1.3,1.7,1.2c10-3.2,17-11.9,17-22.3C50,10.5,38.8,0,25,0L25,0z"/>
</svg>
