<?xml version="1.0" encoding="utf-8"?>
<!-- Generator: Adobe Illustrator 26.0.0, SVG Export Plug-In . SVG Version: 6.00 Build 0)  -->
<svg version="1.1" id="Layer_1" xmlns="http://www.w3.org/2000/svg" xmlns:xlink="http://www.w3.org/1999/xlink" x="0px" y="0px"
	 viewBox="0 0 88 66" style="enable-background:new 0 0 88 66;" xml:space="preserve">
<style type="text/css">
	.st0{fill:none;stroke:#25AAE1;stroke-miterlimit:10;}
	.st1{fill:#4285F4;}
	.st2{fill:#34A853;}
	.st3{fill:#FBBC04;}
	.st4{fill:#EA4335;}
	.st5{fill:#C5221F;}
</style>
<circle class="st0" cx="45.8" cy="33" r="32.3"/>
<path class="st1" d="M24.5,51.5h7.9V32.4L21.1,24v24.1C21.1,50,22.6,51.5,24.5,51.5"/>
<path class="st2" d="M59.3,51.5h7.9c1.9,0,3.4-1.5,3.4-3.4V24l-11.2,8.4"/>
<path class="st3" d="M59.3,17.8v14.6L70.5,24v-4.5c0-4.2-4.8-6.5-8.1-4"/>
<path class="st4" d="M32.3,32.4V17.8L45.8,28l13.5-10.1v14.6L45.8,42.6"/>
<path class="st5" d="M21.1,19.5V24l11.2,8.4V17.8l-3.1-2.4C25.9,13,21.1,15.4,21.1,19.5"/>
</svg>
