<?xml version="1.0" encoding="utf-8"?>
<!-- Generator: Adobe Illustrator 26.0.0, SVG Export Plug-In . SVG Version: 6.00 Build 0)  -->
<svg version="1.1" id="Layer_1" xmlns="http://www.w3.org/2000/svg" xmlns:xlink="http://www.w3.org/1999/xlink" x="0px" y="0px"
	 viewBox="0 0 240 240" style="enable-background:new 0 0 240 240;" xml:space="preserve">
<style type="text/css">
	.st0{fill:#25AAE1;}
	.st1{fill:#FFFFFF;}
</style>
<path class="st0" d="M122,3.5C57.7,3.5,5.5,55.7,5.5,120S57.7,236.5,122,236.5S238.5,184.3,238.5,120S186.3,3.5,122,3.5z"/>
<path class="st1" d="M63.8,90.9h23.3v87.4H63.8V90.9z M75.3,79.2L75.3,79.2c-7.1,0-11.6-5.2-11.6-11.7c0-6.6,4.6-11.6,11.7-11.6
	s11.5,5,11.6,11.6C87.1,74,82.6,79.2,75.3,79.2z M186.1,122.9c0-17.7-14.3-32-32-32c-10.8,0-20.4,5.4-26.2,13.7V90.9h-23.3v87.4
	h23.3v-46.6c0-9.7,7.8-17.5,17.5-17.5s17.5,7.8,17.5,17.5v46.6h23.3C186.1,178.2,186.1,125.4,186.1,122.9z"/>
</svg>
