<svg width="124" height="125" fill="none" xmlns="http://www.w3.org/2000/svg"><g clip-path="url(#clip0)"><path d="M28.094 72.188c0-7.346 5.975-13.32 13.32-13.32h41.172a6.062 6.062 0 006.055-6.056V18.664C88.64 8.648 80.492.5 70.477.5H53.523C43.508.5 35.36 8.648 35.36 18.664v9.93H62a3.632 3.632 0 110 7.265H18.164C8.148 35.86 0 44.008 0 54.023v16.954C0 80.992 8.148 89.14 18.164 89.14h9.93V72.187zm25.43-53.282a3.633 3.633 0 11-.001-7.265 3.633 3.633 0 010 7.265z" fill="#376F9E"/><path d="M105.836 35.86h-9.93v16.953c0 7.345-5.975 13.32-13.32 13.32H41.414a6.062 6.062 0 00-6.055 6.055v34.148c0 10.016 8.149 18.164 18.164 18.164h16.954c10.015 0 18.164-8.148 18.164-18.164v-9.93H62a3.632 3.632 0 110-7.265h43.836c10.016 0 18.164-8.149 18.164-18.164V54.023c0-10.015-8.148-18.164-18.164-18.164zm-35.36 70.234a3.632 3.632 0 11.001 7.265 3.632 3.632 0 010-7.265z" fill="#FFD242"/></g><defs><clipPath id="clip0"><path fill="#fff" transform="translate(0 .5)" d="M0 0h124v124H0z"/></clipPath></defs></svg>