<svg width="50" height="50" fill="none" xmlns="http://www.w3.org/2000/svg"><path d="M48.25 30.22c.36-1.6.54-3.26.54-4.965 0-12.755-10.531-23.1-23.527-23.1-1.367 0-2.712.121-4.027.339A13.76 13.76 0 0013.98.444C6.445.443.338 6.437.338 13.836c0 2.471.676 4.785 1.878 6.776a22.585 22.585 0 00-.48 4.642c0 12.763 10.531 23.107 23.527 23.107 1.472 0 2.914-.135 4.312-.39a13.766 13.766 0 006.453 1.592c7.534 0 13.641-5.994 13.641-13.394a13.182 13.182 0 00-1.42-5.95zm-10.923 6.078c-1.082 1.51-2.69 2.712-4.778 3.56-2.058.842-4.537 1.27-7.346 1.27-3.38 0-6.22-.578-8.429-1.735-1.577-.834-2.884-1.976-3.869-3.373-1.006-1.412-1.51-2.817-1.51-4.177 0-.841.331-1.577.977-2.178.646-.601 1.473-.894 2.457-.894.81 0 1.502.233 2.073.699.54.45 1.006 1.119 1.382 1.983.413.939.872 1.728 1.352 2.351.459.601 1.127 1.104 1.968 1.495.857.398 2.006.6 3.418.6 1.946 0 3.539-.405 4.74-1.209 1.172-.78 1.743-1.727 1.743-2.884 0-.917-.3-1.63-.909-2.194-.638-.586-1.487-1.044-2.509-1.36-1.074-.322-2.531-.675-4.32-1.051-2.44-.51-4.514-1.12-6.166-1.81-1.69-.7-3.05-1.683-4.042-2.9-1.014-1.24-1.517-2.802-1.517-4.635 0-1.743.533-3.32 1.6-4.673 1.044-1.344 2.584-2.396 4.567-3.117 1.946-.706 4.274-1.067 6.896-1.067 2.103 0 3.951.24 5.491.714 1.555.473 2.862 1.112 3.891 1.9 1.037.797 1.803 1.646 2.284 2.524.489.894.736 1.78.736 2.637 0 .827-.323 1.57-.961 2.231-.646.654-1.465.984-2.419.984-.871 0-1.555-.202-2.028-.616-.443-.383-.902-.976-1.405-1.832-.586-1.097-1.3-1.961-2.11-2.57-.79-.586-2.12-.886-3.93-.886-1.69 0-3.057.33-4.079.984-.984.631-1.457 1.36-1.457 2.216 0 .526.15.97.466 1.345.338.398.811.75 1.404 1.044a10.4 10.4 0 001.893.721c.654.18 1.75.443 3.26.789 1.901.398 3.652.841 5.199 1.33 1.563.495 2.922 1.096 4.026 1.802 1.127.722 2.021 1.645 2.652 2.75.639 1.111.954 2.479.954 4.071.008 1.908-.548 3.644-1.645 5.161z" fill="#039BE5"/></svg>