<svg width="50" height="50" fill="none" xmlns="http://www.w3.org/2000/svg"><path fill-rule="evenodd" clip-rule="evenodd" d="M0 25c0 13.807 11.193 25 25 25s25-11.193 25-25S38.807 0 25 0 0 11.193 0 25zm20.417 11.458l.425-6.372 11.592-10.462c.509-.452-.11-.672-.786-.262L17.34 28.388l-6.18-1.929c-1.334-.409-1.344-1.326.3-1.985l24.081-9.286c1.1-.499 2.161.265 1.741 1.948l-4.1 19.326c-.287 1.373-1.117 1.701-2.266 1.067l-6.248-4.616-3.002 2.92-.029.028c-.335.327-.613.597-1.221.597z" fill="#039BE5"/></svg>