<?xml version="1.0" encoding="utf-8"?>
<!-- Generator: Adobe Illustrator 26.0.0, SVG Export Plug-In . SVG Version: 6.00 Build 0)  -->
<svg version="1.1"
	 id="svg2" xmlns:cc="http://creativecommons.org/ns#" xmlns:dc="http://purl.org/dc/elements/1.1/" xmlns:inkscape="http://www.inkscape.org/namespaces/inkscape" xmlns:rdf="http://www.w3.org/1999/02/22-rdf-syntax-ns#" xmlns:sodipodi="http://sodipodi.sourceforge.net/DTD/sodipodi-0.dtd" xmlns:svg="http://www.w3.org/2000/svg"
	 xmlns="http://www.w3.org/2000/svg" xmlns:xlink="http://www.w3.org/1999/xlink" x="0px" y="0px" viewBox="0 0 171.5 139.4"
	 style="enable-background:new 0 0 171.5 139.4;" xml:space="preserve">
<style type="text/css">
	.st0{fill:#2AA9E0;}
	.st1{fill:#FFFFFF;}
</style>
<sodipodi:namedview  bordercolor="#666666" borderopacity="1.0" fit-margin-bottom="0" fit-margin-left="0" fit-margin-right="0" fit-margin-top="0" id="base" inkscape:current-layer="layer1" inkscape:cx="101.29413" inkscape:cy="50.181142" inkscape:document-units="px" inkscape:pageopacity="0.0" inkscape:pageshadow="2" inkscape:window-height="962" inkscape:window-maximized="1" inkscape:window-width="1280" inkscape:window-x="-8" inkscape:window-y="-8" inkscape:zoom="3.7200571" pagecolor="#ffffff" showgrid="false">
	</sodipodi:namedview>
<circle class="st0" cx="86.8" cy="69.7" r="67.5"/>
<g id="layer1" transform="translate(-282.32053,-396.30734)" inkscape:groupmode="layer" inkscape:label="Layer 1">
	<path id="path5" inkscape:connector-curvature="0" class="st1" d="M420.2,433.7c-3.8,1.7-8,2.9-12.3,3.4c4.4-2.6,7.8-6.8,9.4-11.8
		c-4.1,2.5-8.7,4.2-13.6,5.2c-3.9-4.2-9.5-6.8-15.6-6.8c-11.8,0-21.4,9.6-21.4,21.4c0,1.7,0.2,3.3,0.6,4.9
		c-17.8-0.9-33.5-9.4-44.1-22.3c-1.8,3.2-2.9,6.8-2.9,10.8c0,7.4,3.8,14,9.5,17.8c-3.5-0.1-6.8-1.1-9.7-2.7c0,0.1,0,0.2,0,0.3
		c0,10.4,7.4,19,17.2,21c-1.8,0.5-3.7,0.8-5.6,0.8c-1.4,0-2.7-0.1-4-0.4c2.7,8.5,10.6,14.7,20,14.9c-7.3,5.7-16.5,9.2-26.6,9.2
		c-1.7,0-3.4-0.1-5.1-0.3c9.5,6.1,20.7,9.6,32.8,9.6c39.3,0,60.9-32.6,60.9-60.9c0-0.9,0-1.8-0.1-2.8
		C413.7,441.7,417.3,438,420.2,433.7L420.2,433.7z"/>
</g>
</svg>
