<svg width="50" height="50" fill="none" xmlns="http://www.w3.org/2000/svg"><path d="M25 50c13.807 0 25-11.193 25-25S38.807 0 25 0 0 11.193 0 25s11.193 25 25 25z" fill="#4D76A1"/><path fill-rule="evenodd" clip-rule="evenodd" d="M24.056 35.965h1.962s.593-.065.896-.392c.278-.299.27-.861.27-.861s-.04-2.633 1.183-3.021c1.204-.382 2.751 2.545 4.39 3.67 1.24.852 2.183.665 2.183.665l4.384-.061s2.293-.142 1.206-1.945c-.09-.147-.634-1.333-3.26-3.771-2.749-2.551-2.38-2.139.93-6.552 2.017-2.688 2.823-4.329 2.572-5.031-.24-.67-1.724-.493-1.724-.493l-4.936.03s-.366-.049-.637.113c-.265.16-.436.53-.436.53s-.781 2.08-1.823 3.849c-2.198 3.732-3.077 3.929-3.436 3.697-.836-.54-.627-2.17-.627-3.327 0-3.617.549-5.125-1.068-5.516-.537-.13-.932-.215-2.304-.229-1.761-.018-3.252.006-4.096.42-.561.274-.995.887-.73.922.326.044 1.064.2 1.456.733.506.688.488 2.233.488 2.233s.29 4.258-.679 4.787c-.665.363-1.578-.378-3.537-3.764-1.004-1.734-1.762-3.652-1.762-3.652s-.146-.358-.407-.55c-.317-.232-.759-.306-.759-.306l-4.69.031s-.704.02-.963.326c-.23.272-.018.835-.018.835s3.672 8.592 7.83 12.921c3.813 3.97 8.142 3.709 8.142 3.709z" fill="#fff"/></svg>